<svg xmlns="http://www.w3.org/2000/svg" xmlns:xlink="http://www.w3.org/1999/xlink" version="1.1" id="Layer_1" x="0px" y="0px" width="100px" height="100px" viewBox="0 0 100 100" enable-background="new 0 0 100 100" xml:space="preserve">
<path fill="none" d="M97.465,31.832V14.474c0-1.527-1.234-2.765-2.765-2.765H74.643c-1.525,0-2.765,1.237-2.765,2.765v17.358  c0,1.527,1.238,2.764,2.765,2.764H94.7C96.229,34.596,97.465,33.359,97.465,31.832z"/>
<path fill="none" d="M93.503,7.566V4.115c0-1.039-0.842-1.882-1.882-1.882h-41.92c-1.038,0-1.88,0.843-1.88,1.882v3.451  c0,1.039,0.842,1.88,1.88,1.88h41.92C92.661,9.446,93.503,8.605,93.503,7.566z"/>
<path fill="none" d="M96.686,46.455h-8.646c-0.45,0-0.814,0.366-0.814,0.814v3.387c0,0.449,0.364,0.814,0.814,0.814h8.646  c0.447,0,0.812-0.365,0.812-0.814V47.27C97.498,46.821,97.133,46.455,96.686,46.455z"/>
<path fill="none" d="M11.962,80.766H3.314c-0.449,0-0.814,0.366-0.814,0.814v3.387c0,0.449,0.365,0.814,0.814,0.814h8.647  c0.449,0,0.814-0.365,0.814-0.814V81.58C12.776,81.132,12.411,80.766,11.962,80.766z M11.543,84.549h-4.15V82h4.15V84.549z"/>
<path fill="none" d="M55.361,80.766h-8.646c-0.45,0-0.814,0.366-0.814,0.814v3.387c0,0.449,0.364,0.814,0.814,0.814h8.646  c0.447,0,0.812-0.365,0.812-0.814V81.58C56.175,81.132,55.811,80.766,55.361,80.766z M51.323,84.549h-4.189V82h4.189V84.549z"/>
<path fill="#000000" d="M88.227,71.725c-0.006-0.312-0.086-0.615-0.229-0.893c-0.007-0.014-0.017-0.025-0.022-0.039  c-0.053-0.096-0.111-0.188-0.18-0.273c-0.02-0.022-0.038-0.043-0.059-0.065c-0.062-0.072-0.125-0.142-0.199-0.205  c-0.034-0.028-0.071-0.056-0.107-0.082c-0.05-0.037-0.094-0.08-0.147-0.112c-0.019-0.013-0.036-0.018-0.054-0.027  c-0.049-0.027-0.103-0.049-0.152-0.073c-0.067-0.031-0.135-0.063-0.202-0.088c-0.054-0.019-0.108-0.028-0.163-0.042  c-0.072-0.018-0.145-0.037-0.218-0.047c-0.058-0.008-0.115-0.008-0.175-0.01c-0.071-0.004-0.144-0.009-0.215-0.004  c-0.019,0.002-0.035-0.003-0.055,0l0,0h-0.001l-10.19,0.887c-1.101,0.096-1.914,1.065-1.817,2.166  c0.091,1.041,0.964,1.826,1.989,1.826c0.059,0,0.117-0.002,0.177-0.008l5.937-0.518c-4.559,5.844-10.746,10.271-17.785,12.646  c-1.047,0.354-1.608,1.487-1.256,2.534c0.281,0.834,1.061,1.361,1.896,1.361c0.212,0,0.427-0.034,0.64-0.104  c7.477-2.521,14.088-7.134,19.062-13.218l0.415,4.782c0.09,1.042,0.964,1.826,1.989,1.826c0.059,0,0.117-0.002,0.176-0.008  c1.101-0.096,1.914-1.063,1.818-2.164L88.227,71.725z"/>
<path fill="#000000" d="M37.307,10.359c-0.354-1.045-1.487-1.609-2.534-1.256c-7.477,2.521-14.088,7.133-19.063,13.217l-0.415-4.782  c-0.095-1.101-1.062-1.913-2.165-1.819c-1.101,0.096-1.915,1.064-1.819,2.165l0.872,10.05c0.011,0.66,0.343,1.301,0.945,1.672  c0.028,0.018,0.059,0.023,0.088,0.039c0.109,0.062,0.226,0.111,0.347,0.152c0.052,0.016,0.102,0.031,0.154,0.045  c0.139,0.033,0.281,0.055,0.429,0.059c0.011,0,0.021,0.004,0.031,0.004c0.002,0,0.004-0.001,0.006-0.001  c0.001,0,0.002,0.001,0.003,0.001c0.058,0,0.116-0.003,0.176-0.008l10.188-0.889c1.101-0.096,1.915-1.066,1.818-2.166  c-0.096-1.1-1.047-1.912-2.166-1.819l-5.937,0.518c4.56-5.844,10.746-10.272,17.785-12.646  C37.097,12.541,37.659,11.406,37.307,10.359z"/>
<rect x="88.457" y="47.689" fill="#000000" width="4.189" height="2.549"/>
<path fill="#000000" d="M94.5,0H46.824c-3.038,0-5.501,2.463-5.501,5.501c0,0,0,23.998,0,24.28c0,0.281,0.157,0.529,0.532,0.529  c0.281,0,1.188,0,1.438,0c0.375,0,0.562-0.217,0.562-0.498s0-15.339,0-15.339c0-1.527,1.24-2.765,2.767-2.765h20.06  c1.526,0,2.766,1.237,2.766,2.765v17.358c0,1.527-1.238,2.764-2.766,2.764c0,0-4.748,0-5.014,0s-0.422,0.201-0.25,0.502  c0.799,1.391,1.259,2.999,1.259,4.714c0,0,0,17.688,0,18.11s0.194,0.755,0.71,0.755c0.453,0,21.579,0,21.579,0V61.6  c0,2.26,1.831,4.09,4.089,4.09H91.1c2.26,0,4.09-1.83,4.09-4.09v-2.971c2.711-0.34,4.812-2.648,4.812-5.453V5.501  C100,2.463,97.538,0,94.5,0z M49.701,9.446c-1.038,0-1.88-0.841-1.88-1.88V4.115c0-1.039,0.842-1.882,1.88-1.882h41.92  c1.04,0,1.882,0.843,1.882,1.882v3.451c0,1.039-0.842,1.88-1.882,1.88H49.701z M74.643,34.596c-1.525,0-2.765-1.236-2.765-2.764  V14.474c0-1.527,1.238-2.765,2.765-2.765H94.7c1.528,0,2.765,1.237,2.765,2.765v17.358c0,1.527-1.234,2.764-2.765,2.764H74.643z   M97.498,50.656c0,0.449-0.365,0.814-0.812,0.814h-8.646c-0.45,0-0.814-0.365-0.814-0.814V47.27c0-0.448,0.364-0.814,0.814-0.814  h8.646c0.447,0,0.812,0.366,0.812,0.814V50.656z"/>
<rect x="7.393" y="82" fill="#000000" width="4.15" height="2.549"/>
<rect x="47.134" y="82" fill="#000000" width="4.189" height="2.549"/>
<path fill="#000000" d="M53.177,34.311H5.501C2.463,34.311,0,36.773,0,39.812v47.674c0,2.806,2.1,5.113,4.81,5.453v2.972  c0,2.259,1.833,4.09,4.091,4.09h2.044c2.258,0,4.091-1.831,4.091-4.09v-2.923h28.607v2.923c0,2.259,1.831,4.09,4.089,4.09h2.045  c2.259,0,4.089-1.831,4.089-4.09v-2.972c2.711-0.34,4.812-2.647,4.812-5.453V39.812C58.677,36.773,56.215,34.311,53.177,34.311z   M6.498,38.426c0-1.039,0.842-1.882,1.88-1.882h41.92c1.04,0,1.882,0.843,1.882,1.882v3.451c0,1.039-0.842,1.88-1.882,1.88H8.378  c-1.038,0-1.88-0.841-1.88-1.88V38.426z M12.776,84.967c0,0.449-0.365,0.814-0.814,0.814H3.314c-0.449,0-0.814-0.365-0.814-0.814  V81.58c0-0.448,0.365-0.814,0.814-0.814h8.647c0.449,0,0.814,0.366,0.814,0.814L12.776,84.967L12.776,84.967z M28.123,66.143  c0,1.527-1.238,2.765-2.765,2.765H5.299c-1.526,0-2.767-1.236-2.767-2.765V48.784c0-1.527,1.24-2.765,2.767-2.765h20.06  c1.526,0,2.765,1.237,2.765,2.765L28.123,66.143L28.123,66.143z M33.318,68.906c-1.525,0-2.764-1.236-2.764-2.764V48.784  c0-1.527,1.238-2.765,2.764-2.765h20.059c1.529,0,2.766,1.237,2.766,2.765v17.358c0,1.526-1.235,2.764-2.766,2.764H33.318z   M56.175,84.967c0,0.449-0.364,0.814-0.813,0.814h-8.646c-0.45,0-0.814-0.365-0.814-0.814V81.58c0-0.448,0.364-0.814,0.814-0.814  h8.646c0.449,0,0.813,0.366,0.813,0.814V84.967z"/>
<path fill="#000000" stroke="#231F20" stroke-width="5" stroke-linecap="round" stroke-miterlimit="10" d="M37.803,12.559"/>
</svg>