<svg xmlns="http://www.w3.org/2000/svg" xmlns:xlink="http://www.w3.org/1999/xlink" version="1.1" id="Camada_1" x="0px" y="0px" width="100px" height="100px" viewBox="0 0 100 100" enable-background="new 0 0 100 100" xml:space="preserve">
<g>
	<path d="M59.16,88.51l-6.924-21.275c-6.187-0.244-12.319-2.088-17.732-5.527L26.431,88.51c-0.014,0.046-0.018,0.093-0.029,0.139   l-0.106,0.512h0.039C26.365,92.387,33.722,95,42.795,95c9.074,0,16.43-2.613,16.46-5.839h0.039l-0.106-0.512   C59.178,88.603,59.174,88.556,59.16,88.51z"/>
</g>
<path d="M41.965,43.189C30.326,31.549,25.48,17.146,30.094,9.33l-0.238-0.238c-12.759,12.759-12.759,33.446,0,46.205  s33.446,12.759,46.205,0l-0.238-0.238C68.008,59.674,53.605,54.828,41.965,43.189z"/>
<path d="M66.822,18.331C54.625,6.134,39.528,1.456,33.101,7.883c-6.427,6.427-1.749,21.525,10.448,33.722  C55.746,53.802,70.844,58.48,77.271,52.053C83.697,45.626,79.02,30.528,66.822,18.331z M54.232,37.075  c-0.005,0.01-0.012,0.018-0.018,0.028l-0.067,0.102l-0.006-0.006c-0.535,0.525-2.174-0.254-3.666-1.746  c-1.492-1.492-2.271-3.13-1.746-3.666l-0.006-0.006l0.102-0.067c0.009-0.006,0.018-0.013,0.028-0.018l15.62-10.24L54.232,37.075z"/>
</svg>